<svg version="1.1" id="Layer_1" xmlns="http://www.w3.org/2000/svg" xmlns:xlink="http://www.w3.org/1999/xlink" x="0px" y="0px"
	 width="100%" viewBox="0 0 1200 1200"  xml:space="preserve">
<path fill="#000000" opacity="1.000000" stroke="none" 
	d="
M1067.000000,1201.000000 
	C711.333313,1201.000000 356.166656,1201.000000 1.000000,1201.000000 
	C1.000000,801.000000 1.000000,401.000000 1.000000,1.000000 
	C401.000000,1.000000 801.000000,1.000000 1201.000000,1.000000 
	C1201.000000,401.000000 1201.000000,801.000000 1201.000000,1201.000000 
	C1156.500000,1201.000000 1112.000000,1201.000000 1067.000000,1201.000000 
M183.467651,623.983521 
	C191.215363,634.695618 201.003693,643.201477 213.767883,646.635071 
	C220.828217,648.534363 225.641937,651.514771 228.510880,657.993347 
	C229.291595,659.756409 230.071442,661.535950 231.045258,663.194275 
	C233.338593,667.099426 236.687637,667.077881 238.966324,663.125061 
	C241.053177,659.505005 242.836472,655.701355 245.066772,652.176819 
	C245.921188,650.826538 247.492615,649.635803 249.000458,649.051941 
	C252.573425,647.668518 256.460846,647.042175 259.940277,645.483032 
	C269.163086,641.350464 277.370819,635.956543 283.862396,627.814819 
	C293.286041,615.995850 296.598694,602.714844 293.544067,588.331787 
	C290.672546,574.810730 282.290710,564.543030 270.719788,556.977295 
	C258.897430,549.247192 245.792160,546.406128 231.848221,547.016968 
	C216.690338,547.680969 203.025406,552.311401 191.728149,562.791992 
	C174.562286,578.716919 170.545685,603.006348 183.467651,623.983521 
M770.449890,561.000000 
	C768.950317,561.000000 767.430298,561.158936 765.955017,560.969604 
	C761.852478,560.443176 760.235596,562.069519 758.780640,566.159973 
	C754.114136,579.279114 748.573669,592.085327 743.467285,605.050537 
	C738.550659,617.533813 733.754456,630.064697 728.740723,642.999390 
	C733.051086,642.999390 736.871216,643.149719 740.673950,642.957214 
	C744.485596,642.764282 747.282043,641.431335 748.148621,636.955017 
	C748.901062,633.068420 750.490479,629.285767 752.166443,625.668579 
	C752.732849,624.446106 754.680481,623.145569 756.024048,623.116150 
	C765.840088,622.900818 775.663025,623.000122 785.441284,623.000122 
	C787.343018,627.949768 788.882751,632.849609 791.125854,637.403076 
	C792.180054,639.542908 794.377625,642.181091 796.425537,642.550476 
	C800.790833,643.337769 805.396606,642.791138 810.100769,642.791138 
	C799.176086,615.120178 788.487732,588.047913 777.809021,561.000000 
	C775.380188,561.000000 773.386169,561.000000 770.449890,561.000000 
M394.967133,629.269043 
	C393.052002,633.761719 391.136902,638.254395 389.113983,642.999939 
	C393.835297,642.999939 398.064362,643.428589 402.139313,642.821899 
	C404.227173,642.511108 406.826935,640.773071 407.815369,638.937134 
	C410.000671,634.878052 411.123962,630.260315 413.091156,626.062988 
	C413.716309,624.729065 415.605774,623.194092 416.975159,623.136230 
	C423.962067,622.841309 430.999268,623.407471 437.957947,622.875549 
	C443.897858,622.421509 447.530487,623.630066 448.188171,630.297302 
	C448.461517,633.068115 449.811188,635.869080 451.217377,638.346436 
	C452.245636,640.158081 454.021271,642.560974 455.715912,642.783875 
	C460.360748,643.394836 465.138611,642.994446 470.170197,642.994446 
	C468.645905,639.051697 467.405090,635.774048 466.114899,632.515930 
	C457.090515,609.726868 448.085602,586.929871 438.946960,564.186707 
	C438.427521,562.894043 436.660828,561.048157 435.687927,561.169495 
	C430.706635,561.790833 425.332825,558.940979 420.722290,562.715698 
	C420.471680,562.920837 420.220520,563.193420 420.106720,563.487610 
	C411.729095,585.142883 403.365295,606.803528 394.967133,629.269043 
M590.109802,640.636353 
	C593.464478,641.641907 596.757324,643.093689 600.185486,643.568787 
	C610.233948,644.961548 619.512268,643.032593 627.392273,636.146667 
	C629.514648,634.291992 629.267578,632.888611 627.444458,630.803528 
	C624.328918,627.240234 621.579895,626.095886 616.979431,628.858459 
	C610.645203,632.662231 603.344299,634.709778 597.225403,628.841675 
	C594.028748,625.776001 592.485229,620.986694 589.637878,616.000000 
	C592.809509,616.000000 594.427795,616.000000 596.046021,616.000000 
	C605.861877,615.999939 615.680176,616.107666 625.491028,615.886658 
	C627.007324,615.852539 629.693481,614.439392 629.799438,613.446289 
	C630.743103,604.603149 628.244812,592.565491 617.830688,586.804016 
	C609.450378,582.167786 592.193115,583.811646 585.625977,589.722290 
	C576.763123,597.699219 574.898438,607.828857 576.167725,618.676331 
	C577.214539,627.621765 581.411499,635.261841 590.109802,640.636353 
M677.701233,617.170532 
	C674.593323,614.801758 671.721802,611.987000 668.315308,610.181580 
	C664.400330,608.106812 659.802490,607.310608 655.915161,605.197693 
	C653.895203,604.099670 651.394714,601.259216 651.533875,599.385803 
	C651.789612,595.941589 655.110107,594.718506 658.554504,595.016724 
	C660.475159,595.183105 662.529053,595.148010 664.268555,595.841614 
	C672.905090,599.285156 672.875244,599.359924 678.809998,591.479004 
	C672.773987,582.934753 652.588867,581.528625 643.728882,587.662292 
	C633.579163,594.688782 633.817871,612.159729 645.705200,616.262390 
	C650.384216,617.877258 655.201233,619.242981 659.613342,621.416504 
	C661.800842,622.494141 664.781555,625.266846 664.641479,627.056580 
	C664.373474,630.480896 661.481873,633.194946 657.488403,632.919128 
	C654.490234,632.712097 651.336548,632.248474 648.610596,631.069824 
	C639.817322,627.267944 639.144409,627.900757 635.039978,636.173645 
	C641.510986,643.707214 654.334778,646.115051 666.462402,642.073669 
	C676.895996,638.596802 681.890686,628.148376 677.701233,617.170532 
M865.529602,640.059204 
	C873.150635,644.206421 881.313354,643.925415 889.268738,641.995117 
	C893.095459,641.066711 897.483154,638.934326 899.798523,635.940674 
	C907.281006,626.266174 905.683533,612.900879 890.862427,608.920532 
	C887.175232,607.930237 883.473999,606.663391 880.125610,604.875061 
	C878.364563,603.934448 876.104370,601.410156 876.320007,599.928589 
	C876.585510,598.104614 878.998779,595.575256 880.838196,595.228027 
	C883.882935,594.653076 887.470581,594.897400 890.370667,596.001526 
	C898.813660,599.215942 898.902832,599.377869 902.958374,590.791626 
	C894.563538,581.449158 877.701660,581.010803 867.829224,587.780823 
	C862.194336,591.644958 860.028748,597.536743 861.102783,604.141357 
	C862.053833,609.990112 865.187561,614.317505 871.417053,616.181274 
	C876.452026,617.687622 881.342224,619.820007 886.061829,622.150269 
	C887.452026,622.836731 888.859863,625.185913 888.781067,626.695862 
	C888.693298,628.377930 887.294373,630.581543 885.811462,631.493652 
	C880.724365,634.622437 875.894104,632.876160 871.336304,629.838013 
	C866.976501,626.931885 864.724060,627.351501 861.809814,631.717346 
	C860.830322,633.184570 860.096863,634.816101 859.177490,636.507690 
	C861.028442,637.660339 862.888306,638.818604 865.529602,640.059204 
M940.582703,629.946899 
	C939.292358,632.074402 938.001953,634.201965 936.794189,636.193298 
	C947.050720,643.747803 957.802002,644.964478 969.115295,641.349670 
	C977.840820,638.561707 981.066833,633.038025 981.000000,622.149841 
	C980.960815,615.766846 977.289734,611.881104 968.810913,608.941711 
	C964.737488,607.529419 960.629761,606.099243 956.798523,604.161133 
	C955.195496,603.350220 953.037903,600.900269 953.322449,599.726379 
	C953.762390,597.911560 955.841736,596.142151 957.652283,595.081543 
	C961.990417,592.540527 966.237549,594.542236 969.986084,596.615784 
	C974.360840,599.035767 977.005005,597.920227 979.025330,593.776550 
	C979.577148,592.644897 980.212463,591.553955 980.806213,590.450500 
	C975.679504,585.807190 966.125427,581.129272 953.637939,583.896423 
	C946.663025,585.442017 939.515930,591.083435 939.028442,596.981018 
	C938.133362,607.809692 940.498047,613.243347 950.431885,616.991211 
	C954.913391,618.682068 959.547424,620.039795 963.865784,622.072266 
	C968.217712,624.120422 967.960510,628.351196 963.863831,631.051514 
	C958.679077,634.468872 954.029053,632.652405 949.471436,629.918335 
	C946.699707,628.255554 944.090454,626.656555 940.582703,629.946899 
M842.090759,584.023438 
	C834.423401,582.443604 827.078186,582.885559 820.110046,586.955383 
	C809.670898,593.052429 808.774170,608.078125 818.998596,614.303223 
	C823.954773,617.320740 829.868225,618.738403 835.267151,621.068176 
	C837.993835,622.244690 841.456421,624.053894 839.753052,627.419983 
	C838.519043,629.858704 835.168701,632.493774 832.596375,632.673889 
	C829.225952,632.909790 825.443665,631.283691 822.287659,629.611145 
	C817.635376,627.145691 814.956726,627.544556 812.360901,632.167419 
	C811.584778,633.549622 810.720276,634.882202 809.966614,636.121826 
	C819.592529,644.266663 830.657776,644.549805 841.861816,641.848267 
	C849.469238,640.013916 854.652161,632.308838 854.999878,624.465271 
	C855.286682,617.994995 851.291626,612.927734 843.209534,609.667725 
	C838.912781,607.934692 834.439758,606.581787 830.304504,604.535645 
	C828.815002,603.798523 827.071838,601.403259 827.255188,600.001587 
	C827.488464,598.217529 829.225830,596.068970 830.903076,595.140930 
	C835.796814,592.433289 840.164124,595.680420 844.591370,597.216125 
	C847.444153,598.205566 849.861572,599.064392 851.355591,595.282837 
	C851.982788,593.695618 853.258606,592.364685 854.831299,590.044006 
	C850.555786,588.007019 846.714294,586.176758 842.090759,584.023438 
M726.984924,632.009583 
	C729.661865,619.006042 728.684814,613.571167 714.905396,608.932129 
	C711.127136,607.660095 707.376648,606.151428 703.883606,604.254028 
	C702.267029,603.375854 700.073669,601.051941 700.324524,599.832764 
	C700.698669,598.014648 702.747864,596.167664 704.539795,595.090881 
	C708.518005,592.700500 712.311340,594.829651 715.916199,596.495544 
	C721.842163,599.234192 722.505432,599.105896 726.220337,593.419861 
	C726.821167,592.500244 727.528137,591.650024 728.177917,590.778687 
	C721.463806,585.298950 716.328430,582.559326 701.810608,583.975891 
	C693.887390,584.748962 686.834961,590.804443 686.002625,597.845459 
	C684.842041,607.661865 688.491638,613.894714 697.189392,616.990234 
	C701.545410,618.540527 706.037415,619.820740 710.168823,621.836121 
	C711.849670,622.656128 713.931458,625.303162 713.688721,626.762817 
	C713.368103,628.691467 711.259277,630.843872 709.362122,631.889954 
	C704.063721,634.811523 699.353455,631.878540 694.898865,629.343384 
	C690.794800,627.007690 688.176697,628.510071 686.028809,631.967102 
	C685.192261,633.313538 684.604431,634.814636 683.857971,636.337708 
	C691.057068,642.888367 699.700745,643.230896 708.631531,643.066406 
	C716.677551,642.918213 722.624573,639.592651 726.984924,632.009583 
M1017.480042,585.000000 
	C1014.714050,585.000000 1011.948059,585.000000 1008.813354,585.000000 
	C1008.813354,578.670288 1008.813354,572.924438 1008.813354,567.000122 
	C1005.942688,567.000122 1003.446533,567.179504 1000.987610,566.953552 
	C998.075745,566.686035 997.376587,568.450867 997.008301,570.684265 
	C996.224670,575.437012 995.472534,580.194946 994.769165,584.567444 
	C991.193604,585.212036 988.071899,585.774902 984.517517,586.415710 
	C985.084229,589.282898 984.778870,592.560974 986.224731,593.806885 
	C987.949829,595.293457 991.175110,595.039124 994.000000,595.587463 
	C994.000000,606.345520 993.708496,617.161072 994.168823,627.944519 
	C994.316345,631.401733 996.004456,635.026855 997.763855,638.135925 
	C1002.286133,646.127075 1019.895752,643.379517 1024.993164,638.985168 
	C1025.415039,638.621399 1025.913086,638.077637 1025.954102,637.582642 
	C1026.288940,633.539001 1019.949280,628.649841 1016.380188,630.140076 
	C1011.773865,632.063477 1009.392761,631.105713 1009.157471,625.936218 
	C1008.691650,615.702271 1009.019958,605.432190 1009.019958,594.796265 
	C1014.679749,594.796265 1019.759949,594.796265 1024.697754,594.796265 
	C1024.697754,591.323059 1024.697754,588.248352 1024.697754,585.000000 
	C1022.416382,585.000000 1020.435730,585.000000 1017.480042,585.000000 
M486.000031,608.883179 
	C488.003784,596.716492 496.267853,592.417236 507.308533,597.633057 
	C509.138855,598.497864 511.791687,599.488647 513.278748,598.777710 
	C515.537231,597.697998 517.278809,595.305298 518.840942,593.177368 
	C519.195374,592.694580 518.196045,590.699280 517.342773,589.927979 
	C507.764587,581.270203 486.764862,582.061951 478.706116,590.735840 
	C470.040222,600.063293 468.483795,610.968872 471.011810,622.877869 
	C473.532837,634.753845 481.022980,642.130066 492.817780,643.715881 
	C503.102295,645.098694 512.781921,642.498596 520.165649,634.302185 
	C514.019653,626.448242 514.019653,626.448242 505.890594,630.636902 
	C498.455658,634.467957 489.761597,631.407471 487.326569,623.402283 
	C486.026306,619.127625 486.388245,614.347290 486.000031,608.883179 
M530.462585,592.024170 
	C519.573914,604.366943 520.465393,627.383972 532.539612,637.992920 
	C544.181641,648.222168 566.810364,644.204956 572.960327,633.876282 
	C566.855408,626.590820 566.855408,626.590759 558.766602,630.699219 
	C551.391785,634.445007 542.464050,631.300232 540.327515,623.295715 
	C538.924072,618.037964 538.478088,612.110229 539.331909,606.758301 
	C540.726074,598.019165 549.694641,591.994568 559.166748,596.952698 
	C561.237915,598.036865 564.029358,599.333557 565.931458,598.741272 
	C568.193787,598.036743 570.068970,595.562439 571.635742,593.494202 
	C572.066528,592.925537 571.151550,590.672180 570.250977,589.862732 
	C560.655762,581.238098 538.848877,581.796509 530.462585,592.024170 
M926.330200,642.999756 
	C929.225220,643.488403 929.033203,641.589355 929.017944,639.658691 
	C928.969177,633.493164 929.000000,627.327087 929.000000,621.161194 
	C929.000061,608.882996 929.000000,596.604736 929.000000,584.233643 
	C923.465454,584.233643 918.393799,584.233643 913.235291,584.233643 
	C913.235291,603.871887 913.235291,623.275696 913.235291,643.000000 
	C917.428223,643.000000 921.393799,643.000000 926.330200,642.999756 
M342.000000,651.500000 
	C342.000000,611.217773 342.000031,570.935547 341.999939,530.653320 
	C341.999939,529.488159 342.158508,528.292297 341.942871,527.168396 
	C341.795654,526.401123 341.125244,525.734192 340.688751,525.022400 
	C340.126312,525.774536 339.376282,526.456055 339.058380,527.300232 
	C338.783783,528.029297 339.000061,528.943359 339.000061,529.775635 
	C339.000000,577.381897 339.000000,624.988220 339.000000,672.594482 
	C339.000000,674.040161 339.000000,675.485901 339.000000,677.054138 
	C340.214691,676.946228 341.422241,676.906372 341.424622,676.829224 
	C341.674988,668.721313 341.834839,660.610535 342.000000,651.500000 
M911.953125,565.493103 
	C909.727600,569.666504 911.882385,572.801147 914.842529,575.185303 
	C918.512329,578.140991 923.119080,578.079529 926.704224,575.522156 
	C929.578674,573.471741 931.884155,570.272095 930.465271,565.829468 
	C929.178467,561.800842 926.804871,559.402405 922.641724,559.029297 
	C917.929504,558.606995 913.797424,559.527588 911.953125,565.493103 
z"/>
<path fill="#FFFFFF" opacity="1.000000" stroke="none" 
	d="
M183.212158,623.708252 
	C170.545685,603.006348 174.562286,578.716919 191.728149,562.791992 
	C203.025406,552.311401 216.690338,547.680969 231.848221,547.016968 
	C245.792160,546.406128 258.897430,549.247192 270.719788,556.977295 
	C282.290710,564.543030 290.672546,574.810730 293.544067,588.331787 
	C296.598694,602.714844 293.286041,615.995850 283.862396,627.814819 
	C277.370819,635.956543 269.163086,641.350464 259.940277,645.483032 
	C256.460846,647.042175 252.573425,647.668518 249.000458,649.051941 
	C247.492615,649.635803 245.921188,650.826538 245.066772,652.176819 
	C242.836472,655.701355 241.053177,659.505005 238.966324,663.125061 
	C236.687637,667.077881 233.338593,667.099426 231.045258,663.194275 
	C230.071442,661.535950 229.291595,659.756409 228.510880,657.993347 
	C225.641937,651.514771 220.828217,648.534363 213.767883,646.635071 
	C201.003693,643.201477 191.215363,634.695618 183.212158,623.708252 
M220.589905,587.000000 
	C219.924316,587.000122 219.124649,586.760864 218.617981,587.044678 
	C217.020782,587.939453 214.465759,588.817749 214.213043,590.086975 
	C213.572327,593.304688 216.402588,593.000488 218.560638,593.000122 
	C220.313141,592.999817 222.065659,593.000000 223.716156,593.000000 
	C223.716156,597.024902 223.716156,600.439453 223.716156,603.778625 
	C220.975952,604.000610 218.451416,603.924927 216.106125,604.536560 
	C215.199860,604.772888 214.187119,606.568298 214.187607,607.653015 
	C214.187943,608.433289 215.707993,609.739197 216.688828,609.886414 
	C218.931702,610.222961 221.259598,609.992798 224.000610,609.992798 
	C224.000610,614.075073 223.829010,617.870728 224.107925,621.633057 
	C224.188828,622.724304 225.560318,623.719910 226.340164,624.759338 
	C227.226593,623.697205 228.779816,622.692688 228.877396,621.562500 
	C229.200714,617.817993 228.999466,614.028137 228.999466,610.251038 
	C233.250290,610.251038 236.987015,610.251038 241.000000,610.251038 
	C241.000000,613.630127 240.719910,616.797180 241.111191,619.879028 
	C241.325958,621.570618 242.672516,623.118652 243.508774,624.731384 
	C244.672348,623.015869 246.498352,621.424561 246.848419,619.556580 
	C247.411407,616.552551 246.999481,613.365845 246.999481,609.918701 
	C250.251846,609.918701 253.013367,609.918701 255.789093,609.918701 
	C257.160675,601.616943 250.434570,605.014832 247.264435,603.683472 
	C247.264435,600.048706 247.264435,596.638855 247.264435,592.887634 
	C250.289017,592.887634 253.052383,592.887634 255.814758,592.887634 
	C257.098114,584.657532 250.406494,588.005554 246.998840,586.597778 
	C246.998840,583.286377 247.375992,580.077209 246.837738,577.029663 
	C246.573624,575.534424 244.611160,574.339111 243.417343,573.008057 
	C242.611572,574.356750 241.263321,575.646851 241.109894,577.066101 
	C240.761292,580.290894 241.000046,583.579285 241.000046,586.704102 
	C236.655823,586.704102 232.917114,586.704102 228.998840,586.704102 
	C228.998840,582.934448 229.191940,579.440552 228.883148,575.991577 
	C228.788437,574.933655 227.318893,573.998901 226.478928,573.007751 
	C225.652985,574.013000 224.247589,574.947388 224.114426,576.037292 
	C223.773865,578.824463 224.200150,581.703491 223.884781,584.496643 
	C223.781784,585.408875 222.337616,586.169678 220.589905,587.000000 
z"/>
<path fill="#FFFFFF" opacity="1.000000" stroke="none" 
	d="
M770.921021,561.000000 
	C773.386169,561.000000 775.380188,561.000000 777.809021,561.000000 
	C788.487732,588.047913 799.176086,615.120178 810.100769,642.791138 
	C805.396606,642.791138 800.790833,643.337769 796.425537,642.550476 
	C794.377625,642.181091 792.180054,639.542908 791.125854,637.403076 
	C788.882751,632.849609 787.343018,627.949768 785.441284,623.000122 
	C775.663025,623.000122 765.840088,622.900818 756.024048,623.116150 
	C754.680481,623.145569 752.732849,624.446106 752.166443,625.668579 
	C750.490479,629.285767 748.901062,633.068420 748.148621,636.955017 
	C747.282043,641.431335 744.485596,642.764282 740.673950,642.957214 
	C736.871216,643.149719 733.051086,642.999390 728.740723,642.999390 
	C733.754456,630.064697 738.550659,617.533813 743.467285,605.050537 
	C748.573669,592.085327 754.114136,579.279114 758.780640,566.159973 
	C760.235596,562.069519 761.852478,560.443176 765.955017,560.969604 
	C767.430298,561.158936 768.950317,561.000000 770.921021,561.000000 
M767.545898,611.000000 
	C771.971130,611.000000 776.396423,611.000000 781.209229,611.000000 
	C777.181274,600.102417 773.365112,589.778015 769.330566,578.862671 
	C765.368347,589.805115 761.624023,600.145935 757.693848,611.000000 
	C760.998169,611.000000 763.785095,611.000000 767.545898,611.000000 
z"/>
<path fill="#FFFFFF" opacity="1.000000" stroke="none" 
	d="
M394.983765,628.866394 
	C403.365295,606.803528 411.729095,585.142883 420.106720,563.487610 
	C420.220520,563.193420 420.471680,562.920837 420.722290,562.715698 
	C425.332825,558.940979 430.706635,561.790833 435.687927,561.169495 
	C436.660828,561.048157 438.427521,562.894043 438.946960,564.186707 
	C448.085602,586.929871 457.090515,609.726868 466.114899,632.515930 
	C467.405090,635.774048 468.645905,639.051697 470.170197,642.994446 
	C465.138611,642.994446 460.360748,643.394836 455.715912,642.783875 
	C454.021271,642.560974 452.245636,640.158081 451.217377,638.346436 
	C449.811188,635.869080 448.461517,633.068115 448.188171,630.297302 
	C447.530487,623.630066 443.897858,622.421509 437.957947,622.875549 
	C430.999268,623.407471 423.962067,622.841309 416.975159,623.136230 
	C415.605774,623.194092 413.716309,624.729065 413.091156,626.062988 
	C411.123962,630.260315 410.000671,634.878052 407.815369,638.937134 
	C406.826935,640.773071 404.227173,642.511108 402.139313,642.821899 
	C398.064362,643.428589 393.835297,642.999939 389.113983,642.999939 
	C391.136902,638.254395 393.052002,633.761719 394.983765,628.866394 
M427.455505,585.034058 
	C424.323975,593.871033 421.192444,602.707947 417.973541,611.791565 
	C425.759094,611.791565 433.298126,611.791565 440.813293,611.791565 
	C440.890137,611.256653 441.064545,610.883484 440.965790,610.608459 
	C437.208771,600.148865 433.426697,589.698303 429.535339,578.935059 
	C428.931458,581.030396 428.445465,582.716675 427.455505,585.034058 
z"/>
<path fill="#FFFFFF" opacity="1.000000" stroke="none" 
	d="
M589.841309,640.359619 
	C581.411499,635.261841 577.214539,627.621765 576.167725,618.676331 
	C574.898438,607.828857 576.763123,597.699219 585.625977,589.722290 
	C592.193115,583.811646 609.450378,582.167786 617.830688,586.804016 
	C628.244812,592.565491 630.743103,604.603149 629.799438,613.446289 
	C629.693481,614.439392 627.007324,615.852539 625.491028,615.886658 
	C615.680176,616.107666 605.861877,615.999939 596.046021,616.000000 
	C594.427795,616.000000 592.809509,616.000000 589.637878,616.000000 
	C592.485229,620.986694 594.028748,625.776001 597.225403,628.841675 
	C603.344299,634.709778 610.645203,632.662231 616.979431,628.858459 
	C621.579895,626.095886 624.328918,627.240234 627.444458,630.803528 
	C629.267578,632.888611 629.514648,634.291992 627.392273,636.146667 
	C619.512268,643.032593 610.233948,644.961548 600.185486,643.568787 
	C596.757324,643.093689 593.464478,641.641907 589.841309,640.359619 
M594.961609,599.392090 
	C593.742371,601.650940 592.523071,603.909851 590.855103,607.000000 
	C593.807190,607.000000 595.284546,607.000000 596.761902,607.000000 
	C603.055481,607.000000 609.349060,607.000000 616.010132,607.000000 
	C615.889893,601.972595 614.072815,598.028381 609.837524,596.061829 
	C604.569763,593.615906 599.427673,594.586426 594.961609,599.392090 
z"/>
<path fill="#FFFFFF" opacity="1.000000" stroke="none" 
	d="
M677.849487,617.556641 
	C681.890686,628.148376 676.895996,638.596802 666.462402,642.073669 
	C654.334778,646.115051 641.510986,643.707214 635.039978,636.173645 
	C639.144409,627.900757 639.817322,627.267944 648.610596,631.069824 
	C651.336548,632.248474 654.490234,632.712097 657.488403,632.919128 
	C661.481873,633.194946 664.373474,630.480896 664.641479,627.056580 
	C664.781555,625.266846 661.800842,622.494141 659.613342,621.416504 
	C655.201233,619.242981 650.384216,617.877258 645.705200,616.262390 
	C633.817871,612.159729 633.579163,594.688782 643.728882,587.662292 
	C652.588867,581.528625 672.773987,582.934753 678.809998,591.479004 
	C672.875244,599.359924 672.905090,599.285156 664.268555,595.841614 
	C662.529053,595.148010 660.475159,595.183105 658.554504,595.016724 
	C655.110107,594.718506 651.789612,595.941589 651.533875,599.385803 
	C651.394714,601.259216 653.895203,604.099670 655.915161,605.197693 
	C659.802490,607.310608 664.400330,608.106812 668.315308,610.181580 
	C671.721802,611.987000 674.593323,614.801758 677.849487,617.556641 
z"/>
<path fill="#FFFFFF" opacity="1.000000" stroke="none" 
	d="
M865.138916,640.018005 
	C862.888306,638.818604 861.028442,637.660339 859.177490,636.507690 
	C860.096863,634.816101 860.830322,633.184570 861.809814,631.717346 
	C864.724060,627.351501 866.976501,626.931885 871.336304,629.838013 
	C875.894104,632.876160 880.724365,634.622437 885.811462,631.493652 
	C887.294373,630.581543 888.693298,628.377930 888.781067,626.695862 
	C888.859863,625.185913 887.452026,622.836731 886.061829,622.150269 
	C881.342224,619.820007 876.452026,617.687622 871.417053,616.181274 
	C865.187561,614.317505 862.053833,609.990112 861.102783,604.141357 
	C860.028748,597.536743 862.194336,591.644958 867.829224,587.780823 
	C877.701660,581.010803 894.563538,581.449158 902.958374,590.791626 
	C898.902832,599.377869 898.813660,599.215942 890.370667,596.001526 
	C887.470581,594.897400 883.882935,594.653076 880.838196,595.228027 
	C878.998779,595.575256 876.585510,598.104614 876.320007,599.928589 
	C876.104370,601.410156 878.364563,603.934448 880.125610,604.875061 
	C883.473999,606.663391 887.175232,607.930237 890.862427,608.920532 
	C905.683533,612.900879 907.281006,626.266174 899.798523,635.940674 
	C897.483154,638.934326 893.095459,641.066711 889.268738,641.995117 
	C881.313354,643.925415 873.150635,644.206421 865.138916,640.018005 
z"/>
<path fill="#FFFFFF" opacity="1.000000" stroke="none" 
	d="
M940.841125,629.650696 
	C944.090454,626.656555 946.699707,628.255554 949.471436,629.918335 
	C954.029053,632.652405 958.679077,634.468872 963.863831,631.051514 
	C967.960510,628.351196 968.217712,624.120422 963.865784,622.072266 
	C959.547424,620.039795 954.913391,618.682068 950.431885,616.991211 
	C940.498047,613.243347 938.133362,607.809692 939.028442,596.981018 
	C939.515930,591.083435 946.663025,585.442017 953.637939,583.896423 
	C966.125427,581.129272 975.679504,585.807190 980.806213,590.450500 
	C980.212463,591.553955 979.577148,592.644897 979.025330,593.776550 
	C977.005005,597.920227 974.360840,599.035767 969.986084,596.615784 
	C966.237549,594.542236 961.990417,592.540527 957.652283,595.081543 
	C955.841736,596.142151 953.762390,597.911560 953.322449,599.726379 
	C953.037903,600.900269 955.195496,603.350220 956.798523,604.161133 
	C960.629761,606.099243 964.737488,607.529419 968.810913,608.941711 
	C977.289734,611.881104 980.960815,615.766846 981.000000,622.149841 
	C981.066833,633.038025 977.840820,638.561707 969.115295,641.349670 
	C957.802002,644.964478 947.050720,643.747803 936.794189,636.193298 
	C938.001953,634.201965 939.292358,632.074402 940.841125,629.650696 
z"/>
<path fill="#FFFFFF" opacity="1.000000" stroke="none" 
	d="
M842.481812,584.184998 
	C846.714294,586.176758 850.555786,588.007019 854.831299,590.044006 
	C853.258606,592.364685 851.982788,593.695618 851.355591,595.282837 
	C849.861572,599.064392 847.444153,598.205566 844.591370,597.216125 
	C840.164124,595.680420 835.796814,592.433289 830.903076,595.140930 
	C829.225830,596.068970 827.488464,598.217529 827.255188,600.001587 
	C827.071838,601.403259 828.815002,603.798523 830.304504,604.535645 
	C834.439758,606.581787 838.912781,607.934692 843.209534,609.667725 
	C851.291626,612.927734 855.286682,617.994995 854.999878,624.465271 
	C854.652161,632.308838 849.469238,640.013916 841.861816,641.848267 
	C830.657776,644.549805 819.592529,644.266663 809.966614,636.121826 
	C810.720276,634.882202 811.584778,633.549622 812.360901,632.167419 
	C814.956726,627.544556 817.635376,627.145691 822.287659,629.611145 
	C825.443665,631.283691 829.225952,632.909790 832.596375,632.673889 
	C835.168701,632.493774 838.519043,629.858704 839.753052,627.419983 
	C841.456421,624.053894 837.993835,622.244690 835.267151,621.068176 
	C829.868225,618.738403 823.954773,617.320740 818.998596,614.303223 
	C808.774170,608.078125 809.670898,593.052429 820.110046,586.955383 
	C827.078186,582.885559 834.423401,582.443604 842.481812,584.184998 
z"/>
<path fill="#FFFFFF" opacity="1.000000" stroke="none" 
	d="
M726.864258,632.397461 
	C722.624573,639.592651 716.677551,642.918213 708.631531,643.066406 
	C699.700745,643.230896 691.057068,642.888367 683.857971,636.337708 
	C684.604431,634.814636 685.192261,633.313538 686.028809,631.967102 
	C688.176697,628.510071 690.794800,627.007690 694.898865,629.343384 
	C699.353455,631.878540 704.063721,634.811523 709.362122,631.889954 
	C711.259277,630.843872 713.368103,628.691467 713.688721,626.762817 
	C713.931458,625.303162 711.849670,622.656128 710.168823,621.836121 
	C706.037415,619.820740 701.545410,618.540527 697.189392,616.990234 
	C688.491638,613.894714 684.842041,607.661865 686.002625,597.845459 
	C686.834961,590.804443 693.887390,584.748962 701.810608,583.975891 
	C716.328430,582.559326 721.463806,585.298950 728.177917,590.778687 
	C727.528137,591.650024 726.821167,592.500244 726.220337,593.419861 
	C722.505432,599.105896 721.842163,599.234192 715.916199,596.495544 
	C712.311340,594.829651 708.518005,592.700500 704.539795,595.090881 
	C702.747864,596.167664 700.698669,598.014648 700.324524,599.832764 
	C700.073669,601.051941 702.267029,603.375854 703.883606,604.254028 
	C707.376648,606.151428 711.127136,607.660095 714.905396,608.932129 
	C728.684814,613.571167 729.661865,619.006042 726.864258,632.397461 
z"/>
<path fill="#FFFFFF" opacity="1.000000" stroke="none" 
	d="
M1017.967529,585.000000 
	C1020.435730,585.000000 1022.416382,585.000000 1024.697754,585.000000 
	C1024.697754,588.248352 1024.697754,591.323059 1024.697754,594.796265 
	C1019.759949,594.796265 1014.679749,594.796265 1009.019958,594.796265 
	C1009.019958,605.432190 1008.691650,615.702271 1009.157471,625.936218 
	C1009.392761,631.105713 1011.773865,632.063477 1016.380188,630.140076 
	C1019.949280,628.649841 1026.288940,633.539001 1025.954102,637.582642 
	C1025.913086,638.077637 1025.415039,638.621399 1024.993164,638.985168 
	C1019.895752,643.379517 1002.286133,646.127075 997.763855,638.135925 
	C996.004456,635.026855 994.316345,631.401733 994.168823,627.944519 
	C993.708496,617.161072 994.000000,606.345520 994.000000,595.587463 
	C991.175110,595.039124 987.949829,595.293457 986.224731,593.806885 
	C984.778870,592.560974 985.084229,589.282898 984.517517,586.415710 
	C988.071899,585.774902 991.193604,585.212036 994.769165,584.567444 
	C995.472534,580.194946 996.224670,575.437012 997.008301,570.684265 
	C997.376587,568.450867 998.075745,566.686035 1000.987610,566.953552 
	C1003.446533,567.179504 1005.942688,567.000122 1008.813354,567.000122 
	C1008.813354,572.924438 1008.813354,578.670288 1008.813354,585.000000 
	C1011.948059,585.000000 1014.714050,585.000000 1017.967529,585.000000 
z"/>
<path fill="#FFFFFF" opacity="1.000000" stroke="none" 
	d="
M486.000000,609.339172 
	C486.388245,614.347290 486.026306,619.127625 487.326569,623.402283 
	C489.761597,631.407471 498.455658,634.467957 505.890594,630.636902 
	C514.019653,626.448242 514.019653,626.448242 520.165649,634.302185 
	C512.781921,642.498596 503.102295,645.098694 492.817780,643.715881 
	C481.022980,642.130066 473.532837,634.753845 471.011810,622.877869 
	C468.483795,610.968872 470.040222,600.063293 478.706116,590.735840 
	C486.764862,582.061951 507.764587,581.270203 517.342773,589.927979 
	C518.196045,590.699280 519.195374,592.694580 518.840942,593.177368 
	C517.278809,595.305298 515.537231,597.697998 513.278748,598.777710 
	C511.791687,599.488647 509.138855,598.497864 507.308533,597.633057 
	C496.267853,592.417236 488.003784,596.716492 486.000000,609.339172 
z"/>
<path fill="#FFFFFF" opacity="1.000000" stroke="none" 
	d="
M530.727905,591.767822 
	C538.848877,581.796509 560.655762,581.238098 570.250977,589.862732 
	C571.151550,590.672180 572.066528,592.925537 571.635742,593.494202 
	C570.068970,595.562439 568.193787,598.036743 565.931458,598.741272 
	C564.029358,599.333557 561.237915,598.036865 559.166748,596.952698 
	C549.694641,591.994568 540.726074,598.019165 539.331909,606.758301 
	C538.478088,612.110229 538.924072,618.037964 540.327515,623.295715 
	C542.464050,631.300232 551.391785,634.445007 558.766602,630.699219 
	C566.855408,626.590759 566.855408,626.590820 572.960327,633.876282 
	C566.810364,644.204956 544.181641,648.222168 532.539612,637.992920 
	C520.465393,627.383972 519.573914,604.366943 530.727905,591.767822 
z"/>
<path fill="#FFFFFF" opacity="1.000000" stroke="none" 
	d="
M925.844727,642.999878 
	C921.393799,643.000000 917.428223,643.000000 913.235291,643.000000 
	C913.235291,623.275696 913.235291,603.871887 913.235291,584.233643 
	C918.393799,584.233643 923.465454,584.233643 929.000000,584.233643 
	C929.000000,596.604736 929.000061,608.882996 929.000000,621.161194 
	C929.000000,627.327087 928.969177,633.493164 929.017944,639.658691 
	C929.033203,641.589355 929.225220,643.488403 925.844727,642.999878 
z"/>
<path fill="#FFFFFF" opacity="1.000000" stroke="none" 
	d="
M342.000000,652.000000 
	C341.834839,660.610535 341.674988,668.721313 341.424622,676.829224 
	C341.422241,676.906372 340.214691,676.946228 339.000000,677.054138 
	C339.000000,675.485901 339.000000,674.040161 339.000000,672.594482 
	C339.000000,624.988220 339.000000,577.381897 339.000061,529.775635 
	C339.000061,528.943359 338.783783,528.029297 339.058380,527.300232 
	C339.376282,526.456055 340.126312,525.774536 340.688751,525.022400 
	C341.125244,525.734192 341.795654,526.401123 341.942871,527.168396 
	C342.158508,528.292297 341.999939,529.488159 341.999939,530.653320 
	C342.000031,570.935547 342.000000,611.217773 342.000000,652.000000 
z"/>
<path fill="#FFFFFF" opacity="1.000000" stroke="none" 
	d="
M911.975464,565.094482 
	C913.797424,559.527588 917.929504,558.606995 922.641724,559.029297 
	C926.804871,559.402405 929.178467,561.800842 930.465271,565.829468 
	C931.884155,570.272095 929.578674,573.471741 926.704224,575.522156 
	C923.119080,578.079529 918.512329,578.140991 914.842529,575.185303 
	C911.882385,572.801147 909.727600,569.666504 911.975464,565.094482 
z"/>
<path fill="#000000" opacity="1.000000" stroke="none" 
	d="
M221.048370,586.999878 
	C222.337616,586.169678 223.781784,585.408875 223.884781,584.496643 
	C224.200150,581.703491 223.773865,578.824463 224.114426,576.037292 
	C224.247589,574.947388 225.652985,574.013000 226.478928,573.007751 
	C227.318893,573.998901 228.788437,574.933655 228.883148,575.991577 
	C229.191940,579.440552 228.998840,582.934448 228.998840,586.704102 
	C232.917114,586.704102 236.655823,586.704102 241.000046,586.704102 
	C241.000046,583.579285 240.761292,580.290894 241.109894,577.066101 
	C241.263321,575.646851 242.611572,574.356750 243.417328,573.008057 
	C244.611160,574.339111 246.573624,575.534424 246.837738,577.029663 
	C247.375992,580.077209 246.998840,583.286377 246.998840,586.597778 
	C250.406494,588.005554 257.098114,584.657532 255.814758,592.887634 
	C253.052383,592.887634 250.289017,592.887634 247.264435,592.887634 
	C247.264435,596.638855 247.264435,600.048706 247.264435,603.683472 
	C250.434570,605.014832 257.160675,601.616943 255.789093,609.918701 
	C253.013367,609.918701 250.251846,609.918701 246.999481,609.918701 
	C246.999481,613.365845 247.411407,616.552551 246.848419,619.556580 
	C246.498352,621.424561 244.672348,623.015869 243.508774,624.731384 
	C242.672516,623.118652 241.325958,621.570618 241.111191,619.879028 
	C240.719910,616.797180 241.000000,613.630127 241.000000,610.251038 
	C236.987015,610.251038 233.250290,610.251038 228.999466,610.251038 
	C228.999466,614.028137 229.200714,617.817993 228.877396,621.562500 
	C228.779816,622.692688 227.226593,623.697205 226.340179,624.759338 
	C225.560318,623.719910 224.188828,622.724304 224.107925,621.633057 
	C223.829010,617.870728 224.000610,614.075073 224.000610,609.992798 
	C221.259598,609.992798 218.931702,610.222961 216.688828,609.886414 
	C215.707993,609.739197 214.187943,608.433289 214.187607,607.653015 
	C214.187119,606.568298 215.199860,604.772888 216.106125,604.536560 
	C218.451416,603.924927 220.975952,604.000610 223.716156,603.778625 
	C223.716156,600.439453 223.716156,597.024902 223.716156,593.000000 
	C222.065659,593.000000 220.313141,592.999817 218.560638,593.000122 
	C216.402588,593.000488 213.572327,593.304688 214.213043,590.086975 
	C214.465759,588.817749 217.020782,587.939453 218.617981,587.044678 
	C219.124649,586.760864 219.924316,587.000122 221.048370,586.999878 
M235.473541,593.000000 
	C233.393982,593.000000 231.314423,593.000000 229.230042,593.000000 
	C229.230042,596.923096 229.230042,600.302429 229.230042,603.638306 
	C233.297363,603.638306 237.123215,603.638306 240.852890,603.638306 
	C240.852890,600.013367 240.852890,596.751038 240.852890,593.000000 
	C239.287170,593.000000 237.861313,593.000000 235.473541,593.000000 
z"/>
<path fill="#000000" opacity="1.000000" stroke="none" 
	d="
M767.058960,611.000000 
	C763.785095,611.000000 760.998169,611.000000 757.693848,611.000000 
	C761.624023,600.145935 765.368347,589.805115 769.330566,578.862671 
	C773.365112,589.778015 777.181274,600.102417 781.209229,611.000000 
	C776.396423,611.000000 771.971130,611.000000 767.058960,611.000000 
z"/>
<path fill="#000000" opacity="1.000000" stroke="none" 
	d="
M427.707520,584.718506 
	C428.445465,582.716675 428.931458,581.030396 429.535339,578.935059 
	C433.426697,589.698303 437.208771,600.148865 440.965790,610.608459 
	C441.064545,610.883484 440.890137,611.256653 440.813293,611.791565 
	C433.298126,611.791565 425.759094,611.791565 417.973541,611.791565 
	C421.192444,602.707947 424.323975,593.871033 427.707520,584.718506 
z"/>
<path fill="#000000" opacity="1.000000" stroke="none" 
	d="
M594.999573,598.998779 
	C599.427673,594.586426 604.569763,593.615906 609.837524,596.061829 
	C614.072815,598.028381 615.889893,601.972595 616.010132,607.000000 
	C609.349060,607.000000 603.055481,607.000000 596.761902,607.000000 
	C595.284546,607.000000 593.807190,607.000000 590.855103,607.000000 
	C592.523071,603.909851 593.742371,601.650940 594.999573,598.998779 
z"/>
<path fill="#FFFFFF" opacity="1.000000" stroke="none" 
	d="
M235.954498,593.000000 
	C237.861313,593.000000 239.287170,593.000000 240.852890,593.000000 
	C240.852890,596.751038 240.852890,600.013367 240.852890,603.638306 
	C237.123215,603.638306 233.297363,603.638306 229.230042,603.638306 
	C229.230042,600.302429 229.230042,596.923096 229.230042,593.000000 
	C231.314423,593.000000 233.393982,593.000000 235.954498,593.000000 
z"/>
</svg>