<svg id="Layer_1" data-name="Layer 1" xmlns="http://www.w3.org/2000/svg" viewBox="0 0 102.37 122.88"><defs><style>.cls-1{fill-rule:evenodd;}</style></defs><title>job</title><path class="cls-1" d="M5.13,64.37a.39.39,0,0,0-.17,0l0,0a.27.27,0,0,0-.09.21v11.7a.27.27,0,0,0,0,.18l0,0a.27.27,0,0,0,.21.09H97.24a.35.35,0,0,0,.22-.08.33.33,0,0,0,.08-.22V64.67a.31.31,0,0,0-.3-.3ZM29.21,111a13.16,13.16,0,0,1-2.11-.17c-.69-.11-2.23-.36-2.69-.5v-4.71c.4,0,1.78.13,2.19.13h1.22a2.21,2.21,0,0,0,1.07-.22,1.28,1.28,0,0,0,.59-.58,2.16,2.16,0,0,0,.18-.92V88.35h5.86v16.54a7.92,7.92,0,0,1-.62,3.29,4.21,4.21,0,0,1-2,2.07,8.14,8.14,0,0,1-3.68.71Zm18.65,0a16.77,16.77,0,0,1-4.18-.47,6.35,6.35,0,0,1-3-1.68,7.43,7.43,0,0,1-1.81-3.45,22.66,22.66,0,0,1-.61-5.81,22.6,22.6,0,0,1,.61-5.81,7.52,7.52,0,0,1,1.81-3.46,6.42,6.42,0,0,1,3-1.67,18.82,18.82,0,0,1,8.36,0,6.51,6.51,0,0,1,3,1.67,7.71,7.71,0,0,1,1.81,3.46,23.12,23.12,0,0,1,.6,5.81,23.17,23.17,0,0,1-.6,5.81,7.62,7.62,0,0,1-1.81,3.45,6.44,6.44,0,0,1-3,1.68,16.77,16.77,0,0,1-4.18.47Zm0-5.25a5.15,5.15,0,0,0,1.87-.28,2.16,2.16,0,0,0,1.13-.93,4.74,4.74,0,0,0,.58-1.87,23.66,23.66,0,0,0,.16-3.08,24.45,24.45,0,0,0-.16-3.17,4.69,4.69,0,0,0-.58-1.86,2,2,0,0,0-1.13-.89,6,6,0,0,0-1.87-.24,6.18,6.18,0,0,0-1.86.24,2.07,2.07,0,0,0-1.14.89,4.87,4.87,0,0,0-.57,1.86,22.54,22.54,0,0,0-.17,3.17,21.8,21.8,0,0,0,.17,3.08,4.92,4.92,0,0,0,.57,1.87,2.18,2.18,0,0,0,1.14.93,5.28,5.28,0,0,0,1.86.28Zm12.35,5.07V88.35H69.5c2.42,0,4.15.53,5.21,1.6a6,6,0,0,1,1.58,4.38A6.92,6.92,0,0,1,76,96.61a4.33,4.33,0,0,1-1,1.63,3.6,3.6,0,0,1-1.71.89,5.55,5.55,0,0,1,1.48.63,4,4,0,0,1,1.21,1.12,5.28,5.28,0,0,1,.8,1.63,7.18,7.18,0,0,1,.29,2.11,7,7,0,0,1-.79,3.56,4.52,4.52,0,0,1-2.35,2,10.75,10.75,0,0,1-3.89.62Zm5.85-5.25h3.71a1.51,1.51,0,0,0,1.47-.93,2.51,2.51,0,0,0,.19-1,2.54,2.54,0,0,0-.19-1,1.57,1.57,0,0,0-.56-.68,1.6,1.6,0,0,0-.91-.24H66.06v3.93Zm0-8.37h3.38a1.07,1.07,0,0,0,1-.51,2.37,2.37,0,0,0,.32-1.27,1.89,1.89,0,0,0-.41-1.4,1.3,1.3,0,0,0-.89-.38H66.06v3.56ZM41.68,44.32l5.26,13.82,2.65-7.53-1.3-1.42c-1-1.43-.64-3,1.17-3.33a12.57,12.57,0,0,1,1.95,0,10.19,10.19,0,0,1,2.15.08c1.68.37,1.85,2,1,3.29l-1.3,1.42,2.65,7.53,4.76-13.82C64.12,47.41,76.22,48,80,50.14s4.75,5.64,5.43,9.41H97.24a5.14,5.14,0,0,1,5.13,5.12v11.7A5.11,5.11,0,0,1,100.86,80h0a5.1,5.1,0,0,1-3.61,1.5H95.47V119a3.89,3.89,0,0,1-3.89,3.89H12a3.88,3.88,0,0,1-2.76-1.15,1.12,1.12,0,0,1-.18-.2,3.87,3.87,0,0,1-1-2.55V81.5h-3A5.14,5.14,0,0,1,1.5,80l-.16-.18A5.1,5.1,0,0,1,0,76.37V64.67a5.14,5.14,0,0,1,1.5-3.62l.19-.17a5.08,5.08,0,0,1,3.43-1.33H16.93c.69-3.77,1.68-7.33,5.44-9.41,4.65-2.59,15.5-2.39,19.31-5.82ZM12.91,81.5v36.55H90.65V81.5ZM42.59,40.27c-1.79-1.6-3.21-2.76-3.52-6.08h-.19a2.63,2.63,0,0,1-1.27-.34,3.49,3.49,0,0,1-1.41-1.7c-.64-1.49-1.16-5.4.47-6.52l-.3-.2,0-.44c-.06-.78-.08-1.74-.09-2.74-.06-3.68-.14-8.13-3.09-9l-1.27-.38.83-1A47.66,47.66,0,0,1,40.12,4.3,18.82,18.82,0,0,1,48.7.13,10.35,10.35,0,0,1,57,2.46a15.33,15.33,0,0,1,2.23,2.25A9.48,9.48,0,0,1,66,8.61,13.68,13.68,0,0,1,68.13,13a15.16,15.16,0,0,1,.58,5A12,12,0,0,1,65.24,26a2.43,2.43,0,0,1,1.08.27c1.24.66,1.28,2.1,1,3.3-.32,1-.72,2.17-1.11,3.15-.47,1.32-1.15,1.57-2.47,1.42-.06,3.27-1.57,4.17-3.6,6.09.08,4.92-17.61,4.34-17.5,0Z"/></svg>