<?xml version="1.0" encoding="utf-8"?><svg version="1.1" id="Layer_1" xmlns="http://www.w3.org/2000/svg" xmlns:xlink="http://www.w3.org/1999/xlink" x="0px" y="0px" width="50px" height="50px" viewBox="0 0 121.699 122.879" enable-background="new 0 0 121.699 122.879" xml:space="preserve"><g><path d="M53.613,0c14.79,0,28.202,6.018,37.918,15.694c9.715,9.716,15.693,23.089,15.693,37.918 c0,10.817-3.225,20.926-8.732,29.343l23.207,25.292l-16.008,14.632L83.311,98.256c-8.498,5.664-18.725,8.969-29.698,8.969 c-14.79,0-28.203-6.019-37.918-15.694C5.979,81.814,0,68.44,0,53.612c0-14.79,6.018-28.202,15.695-37.918 C25.41,5.979,38.784,0,53.613,0L53.613,0z M28.797,39.952h7.64v13.381c0,2.81-0.247,4.95-0.746,6.418 c-0.5,1.463-1.503,2.708-3.011,3.729c-1.509,1.015-3.441,1.525-5.793,1.525c-2.489,0-4.417-0.339-5.782-1.01 c-1.371-0.671-2.426-1.651-3.172-2.948c-0.746-1.29-1.187-2.891-1.319-4.794l7.261-0.987c0.012,1.079,0.109,1.882,0.287,2.403 c0.178,0.528,0.482,0.946,0.912,1.274c0.292,0.212,0.705,0.315,1.245,0.315c0.854,0,1.48-0.315,1.881-0.946 c0.396-0.631,0.596-1.698,0.596-3.195V39.952L28.797,39.952z M38.811,52.289c0-4.021,1.118-7.152,3.361-9.389 c2.243-2.243,5.363-3.362,9.367-3.362c4.101,0,7.261,1.102,9.481,3.298c2.219,2.203,3.326,5.289,3.326,9.252 c0,2.878-0.48,5.236-1.451,7.077c-0.969,1.842-2.375,3.275-4.204,4.302c-1.835,1.026-4.118,1.537-6.854,1.537 c-2.776,0-5.076-0.441-6.9-1.325c-1.818-0.889-3.298-2.288-4.428-4.204C39.378,57.566,38.811,55.168,38.811,52.289L38.811,52.289z M46.417,52.306c0,2.483,0.464,4.273,1.388,5.357c0.929,1.084,2.191,1.629,3.786,1.629c1.634,0,2.907-0.534,3.802-1.595 c0.901-1.066,1.348-2.971,1.348-5.729c0-2.317-0.471-4.009-1.405-5.076c-0.941-1.072-2.209-1.605-3.814-1.605 c-1.537,0-2.776,0.544-3.705,1.628C46.881,47.999,46.417,49.8,46.417,52.306L46.417,52.306z M66.754,39.952H81.02 c2.375,0,4.197,0.591,5.471,1.767s1.91,2.633,1.91,4.371c0,1.457-0.453,2.707-1.365,3.745c-0.602,0.7-1.49,1.245-2.654,1.652 c1.771,0.424,3.068,1.152,3.906,2.19c0.83,1.039,1.25,2.341,1.25,3.906c0,1.279-0.299,2.426-0.891,3.447 c-0.596,1.021-1.41,1.823-2.438,2.421c-0.643,0.366-1.605,0.636-2.896,0.803c-1.715,0.224-2.85,0.338-3.412,0.338H66.754V39.952 L66.754,39.952z M74.428,49.622h3.322c1.188,0,2.02-0.207,2.482-0.614c0.465-0.413,0.701-1.003,0.701-1.778 c0-0.716-0.236-1.279-0.701-1.68c-0.463-0.407-1.277-0.608-2.432-0.608h-3.373V49.622L74.428,49.622z M74.428,59.292h3.885 c1.313,0,2.236-0.235,2.775-0.7c0.539-0.465,0.809-1.084,0.809-1.87c0-0.729-0.264-1.313-0.797-1.755 c-0.533-0.441-1.469-0.665-2.805-0.665h-3.867V59.292L74.428,59.292z M87.283,19.942C78.668,11.328,66.75,5.979,53.613,5.979 c-13.138,0-25.056,5.35-33.67,13.963c-8.614,8.614-13.964,20.532-13.964,33.67c0,13.138,5.35,25.056,13.964,33.67 c8.614,8.614,20.532,13.964,33.67,13.964c13.137,0,25.055-5.35,33.67-13.964c8.613-8.614,13.963-20.532,13.963-33.67 C101.246,40.474,95.896,28.556,87.283,19.942L87.283,19.942L87.283,19.942z"/></g></svg>