<svg version="1.1" id="Layer_1" xmlns="http://www.w3.org/2000/svg" xmlns:xlink="http://www.w3.org/1999/xlink" x="0px" y="0px"
	 width="100%" viewBox="100 400 1000 500" enable-background="new 0 0 1080 1080" xml:space="preserve">
<path fill="#102452" opacity="1.000000" stroke="none" 
	d="
M955.000000,1081.000000 
	C636.666687,1081.000000 318.833344,1081.000000 1.000000,1081.000000 
	C1.000000,721.000000 1.000000,361.000000 1.000000,1.000000 
	C361.000000,1.000000 721.000000,1.000000 1081.000000,1.000000 
	C1081.000000,361.000000 1081.000000,721.000000 1081.000000,1081.000000 
	C1039.166626,1081.000000 997.333313,1081.000000 955.000000,1081.000000 
M217.338898,592.021729 
	C219.585587,586.155701 223.510605,583.027222 229.987091,581.669434 
	C235.180695,580.580627 240.208801,577.614563 244.735229,574.613953 
	C267.884003,559.268433 271.483124,528.956665 252.637161,509.231842 
	C242.207352,498.315674 228.864639,493.220306 214.231674,492.219543 
	C200.329056,491.268799 187.321518,495.566010 176.447617,504.175781 
	C163.284363,514.598145 155.508759,528.369385 159.048706,545.608398 
	C162.802673,563.889648 174.749100,576.143188 192.458694,581.372742 
	C199.886429,583.566162 204.218246,587.289246 207.053268,593.831726 
	C207.184998,594.135742 207.325455,594.465576 207.551880,594.694214 
	C208.968460,596.124146 210.410660,597.528625 211.844391,598.941589 
	C213.248337,597.437683 214.682068,595.959961 216.038803,594.414490 
	C216.467438,593.926270 216.690140,593.257141 217.338898,592.021729 
M374.675659,516.791992 
	C366.851105,537.035583 359.026550,557.279175 350.987122,578.078674 
	C354.620636,578.078674 357.451630,577.893005 360.248169,578.124023 
	C364.021790,578.435791 366.097107,576.845642 367.317749,573.321350 
	C368.830444,568.953796 369.592651,562.945923 372.770599,560.907776 
	C376.233917,558.686584 382.092377,560.135864 386.907501,560.104919 
	C391.564148,560.075012 397.405518,558.509216 400.554352,560.716614 
	C403.868744,563.040161 404.608643,569.035522 406.475128,573.425720 
	C406.799927,574.189758 406.940643,575.168823 407.504120,575.665222 
	C408.562897,576.598022 409.822815,577.812927 411.079498,577.914368 
	C414.765289,578.211914 418.490601,578.020386 422.698303,578.020386 
	C413.233154,553.654907 404.103760,530.075806 394.836212,506.551178 
	C394.418549,505.490936 392.820679,504.361023 391.652771,504.213837 
	C380.356262,502.790070 379.906464,503.117859 375.857605,513.741333 
	C375.561157,514.519165 375.250946,515.291748 374.675659,516.791992 
M669.093140,545.379272 
	C664.981689,556.050720 660.870239,566.722229 656.694885,577.559753 
	C673.816650,578.450134 670.437866,578.850281 675.190125,566.607178 
	C675.611816,565.520874 676.151489,564.451904 676.376404,563.323120 
	C676.944275,560.473022 678.639771,559.734741 681.395447,559.864685 
	C685.882507,560.076355 690.387146,559.915649 694.884338,559.912476 
	C707.145813,559.903748 707.140869,559.905701 711.352417,571.201050 
	C711.875000,572.602600 712.236389,574.164185 713.121887,575.301697 
	C713.963135,576.382385 715.342041,577.608826 716.574951,577.714355 
	C720.261841,578.030029 723.993103,577.827820 728.205200,577.827820 
	C727.344788,575.433899 726.822266,573.874573 726.228149,572.343018 
	C718.638855,552.781494 711.032227,533.226624 703.445435,513.664124 
	C699.636841,503.843719 699.649414,503.980194 689.260986,503.864380 
	C686.047363,503.828522 684.659485,504.895538 683.555969,507.871674 
	C678.986755,520.193604 674.119263,532.404846 669.093140,545.379272 
M536.778748,565.855469 
	C534.818542,562.247314 532.858398,558.639099 530.337341,553.998535 
	C542.190491,553.998535 552.161194,553.899597 562.127991,554.054688 
	C565.405212,554.105713 566.464294,552.781494 566.650513,549.686218 
	C567.660156,532.903687 553.482788,521.229736 537.165771,525.625671 
	C526.535706,528.489563 520.633972,535.678833 518.995850,546.421326 
	C517.115906,558.749023 521.868530,570.342773 530.837158,575.668579 
	C541.783447,582.168823 558.664734,579.459045 565.696228,570.073120 
	C561.666260,563.982605 561.076172,562.798523 553.936096,566.739380 
	C548.581970,569.694458 542.810913,569.965698 536.778748,565.855469 
M881.519775,569.067749 
	C885.527161,558.305542 882.665283,551.861877 872.034851,547.813354 
	C868.618774,546.512390 864.953918,545.682190 861.816650,543.905884 
	C860.141541,542.957397 858.231262,540.287964 858.463989,538.692505 
	C858.708740,537.015625 861.244263,534.696045 863.032471,534.441833 
	C865.988281,534.021423 869.323975,534.533569 872.186096,535.542175 
	C878.855591,537.892395 879.771851,537.636902 882.115112,530.593628 
	C875.360474,524.452454 867.207275,523.707336 858.800964,525.360535 
	C850.794312,526.935181 845.986328,532.599792 845.658203,539.625427 
	C845.292175,547.464661 848.491394,551.787537 857.137634,555.014771 
	C860.408936,556.235779 863.931335,556.968445 866.937195,558.644775 
	C868.660217,559.605591 870.784058,562.199158 870.550415,563.724121 
	C870.255615,565.647522 867.903076,568.466614 866.148743,568.697205 
	C862.749329,569.144104 858.846436,568.771729 855.690857,567.451294 
	C848.622742,564.493713 847.244019,564.819702 844.624207,572.306030 
	C852.051819,580.869812 874.900574,581.966614 881.519775,569.067749 
M786.270142,578.367981 
	C789.255188,578.504517 792.250549,578.869812 795.223389,578.735474 
	C804.690735,578.307678 811.626831,572.473694 812.915894,564.088196 
	C814.187195,555.818054 810.424988,550.870422 800.180054,547.212646 
	C796.902588,546.042419 793.453186,545.109253 790.485291,543.377380 
	C786.636169,541.131287 787.041809,536.096985 791.303772,535.032104 
	C794.593506,534.210144 798.573059,534.530457 801.843994,535.586914 
	C808.737915,537.813538 809.355225,537.826660 812.001953,530.794312 
	C805.317139,524.537964 797.162048,523.772034 788.755249,525.380432 
	C780.619812,526.936829 775.723633,532.731323 775.314514,540.031799 
	C774.918274,547.102661 778.586182,551.923401 786.798462,555.017944 
	C790.219421,556.307129 793.892151,557.112976 797.037170,558.875854 
	C798.723755,559.821289 800.612610,562.440430 800.442993,564.103821 
	C800.265137,565.848022 797.874756,568.514038 796.200562,568.717896 
	C792.778625,569.134460 788.878357,568.923157 785.729919,567.625000 
	C778.275085,564.551331 777.774719,564.475647 773.867126,573.134216 
	C777.729370,574.800781 781.591064,576.467102 786.270142,578.367981 
M758.802979,525.784790 
	C754.354797,525.555969 749.816223,524.657104 745.477844,525.242310 
	C737.270203,526.349304 731.824890,532.336792 731.218933,539.701294 
	C730.628540,546.876892 734.427490,551.958740 742.810608,555.082581 
	C745.921631,556.242065 749.305969,556.872559 752.145874,558.483948 
	C754.056580,559.568176 756.768555,562.411011 756.397156,563.650574 
	C755.734985,565.860413 753.241577,568.590027 751.092102,569.026978 
	C748.117676,569.631897 744.485413,568.939148 741.607422,567.702515 
	C734.198181,564.518616 733.717896,564.501343 730.073853,572.514282 
	C735.982666,577.754150 743.052979,579.207825 750.760437,578.843140 
	C760.473022,578.383484 767.547424,572.649658 768.842468,564.052124 
	C770.084412,555.807068 766.322937,550.888000 756.053894,547.246399 
	C752.930542,546.138794 749.652161,545.262207 746.818298,543.630859 
	C745.403320,542.816345 743.963013,540.448975 744.118896,538.948730 
	C744.276917,537.427612 746.265991,535.075317 747.668457,534.909546 
	C750.975830,534.518738 754.629272,534.558716 757.750488,535.600037 
	C764.666321,537.907349 765.004822,538.013367 768.170349,530.420410 
	C765.344849,528.955872 762.457581,527.459290 758.802979,525.784790 
M908.164734,537.384888 
	C909.208984,536.516663 910.191101,535.008362 911.309143,534.899902 
	C914.710144,534.569824 918.163574,534.780212 921.754517,534.780212 
	C921.754517,531.497437 921.754517,528.907715 921.754517,525.576477 
	C917.148987,525.576477 912.785767,525.576477 907.962524,525.576477 
	C907.962524,519.909180 907.962524,514.981140 907.962524,510.114471 
	C898.697205,509.244934 898.247742,509.191895 897.258118,517.577026 
	C896.545776,523.612488 894.286560,527.001526 888.018433,527.135132 
	C887.767395,527.140503 887.524475,527.524841 887.557068,527.497437 
	C885.422424,534.629639 890.016724,535.191284 895.057068,535.065186 
	C895.057068,545.228271 894.970947,554.885315 895.086121,564.539917 
	C895.168701,571.468628 898.165405,575.971863 903.588257,577.899658 
	C910.141418,580.229248 918.863647,578.234680 922.886230,573.313171 
	C920.298340,571.502258 921.223572,565.538757 915.402405,567.500427 
	C910.280945,569.226318 908.276611,567.800415 908.208435,562.396362 
	C908.107544,554.401489 908.166321,546.404602 908.164734,537.384888 
M641.948303,560.695862 
	C643.763123,565.280090 642.896423,568.141357 638.417358,568.958008 
	C635.222351,569.540527 631.420166,569.181396 628.415039,567.954224 
	C620.418762,564.688843 620.164551,564.542542 616.522095,572.311646 
	C622.240112,577.922852 632.025024,580.450012 640.638550,578.540344 
	C649.556030,576.563354 654.839966,570.850586 655.384155,562.598083 
	C655.866821,555.278687 652.236145,550.931824 642.788818,547.520447 
	C639.822510,546.449280 636.613708,545.776917 633.975647,544.168091 
	C632.293396,543.142212 630.341614,540.589111 630.546692,538.980225 
	C630.760376,537.303650 633.266235,534.935974 635.044312,534.664001 
	C637.983582,534.214294 641.327026,534.684082 644.173157,535.690979 
	C651.004395,538.107727 651.241455,538.189209 654.442322,531.035034 
	C647.773499,524.759521 639.640076,523.853882 631.208923,525.475525 
	C622.966064,527.060974 618.079468,532.773621 617.682129,540.033447 
	C617.276489,547.444824 620.832458,552.009705 629.442993,555.300964 
	C633.458008,556.835632 637.418274,558.513550 641.948303,560.695862 
M610.153931,556.689697 
	C608.281555,551.897583 604.215088,549.740845 599.761719,548.067017 
	C596.198364,546.727783 592.441589,545.756775 589.129150,543.961121 
	C587.586304,543.124817 585.915161,540.613708 586.086731,539.058594 
	C586.261902,537.470947 588.482849,535.107788 590.059753,534.887756 
	C593.177490,534.452942 596.675659,534.658508 599.646729,535.677612 
	C606.659790,538.083130 606.615662,538.321106 610.095337,531.136597 
	C603.297119,524.797791 595.104492,523.775574 586.498047,525.620911 
	C578.251709,527.389038 573.469849,533.071167 573.192017,540.317627 
	C572.915039,547.543823 576.401733,552.063965 584.736145,555.187683 
	C587.994141,556.408813 591.526428,557.127136 594.477051,558.854553 
	C596.288940,559.915222 598.420166,562.574097 598.245361,564.295776 
	C598.062256,566.100098 595.458313,568.779846 593.617798,569.047058 
	C590.392761,569.515137 586.651733,569.126343 583.644226,567.863892 
	C576.111389,564.701965 575.045959,564.909607 572.244019,572.650635 
	C577.833923,577.512085 583.331421,579.217468 592.536072,578.945251 
	C605.141113,578.572571 612.288513,569.987671 610.153931,556.689697 
M423.510834,555.192871 
	C425.104401,568.314026 431.801086,576.764343 442.222687,578.804688 
	C452.393433,580.795959 463.296295,576.784973 467.145233,569.636108 
	C462.676788,563.454773 462.676788,563.454773 455.998779,567.089783 
	C448.220673,571.323608 440.028931,568.276794 438.014069,559.634888 
	C436.920959,554.946411 436.851196,549.640930 437.832825,544.929016 
	C439.643280,536.238708 447.458771,532.933594 455.602722,536.580688 
	C462.825470,539.815186 462.960449,539.766296 466.719238,532.432007 
	C459.934235,525.023621 451.290100,523.675537 442.082001,525.691772 
	C429.487701,528.449524 423.084076,538.672119 423.510834,555.192871 
M487.373596,540.171082 
	C492.353271,534.823486 497.203552,533.750854 503.453461,536.615051 
	C510.413300,539.804626 511.021179,539.570190 514.340393,532.416321 
	C504.479095,522.134766 486.584717,522.357483 477.408081,532.875977 
	C467.536987,544.190491 469.595367,566.093201 481.145416,574.870178 
	C491.117310,582.447937 510.490723,579.219543 514.888916,569.793701 
	C510.541229,563.252075 510.541229,563.252075 503.907990,566.986877 
	C496.206940,571.322876 488.126984,568.289490 485.659393,559.799622 
	C483.806183,553.423584 483.852081,546.979004 487.373596,540.171082 
M835.237061,526.516724 
	C831.051880,526.222595 826.866699,525.928528 822.674561,525.633911 
	C822.674561,543.520691 822.674561,560.516052 822.674561,577.472778 
	C827.109741,577.472778 831.027527,577.472778 835.378418,577.472778 
	C835.378418,560.572693 835.378418,543.969238 835.237061,526.516724 
M308.017059,570.500610 
	C307.963928,538.362671 307.912140,506.224762 307.833374,474.086914 
	C307.832764,473.831543 307.484436,473.558716 307.261200,473.330536 
	C307.159271,473.226318 306.970398,473.188934 306.813873,473.161499 
	C306.655090,473.133606 306.487610,473.155334 305.764099,473.155334 
	C305.764099,518.429932 305.764099,563.707275 305.764099,608.984619 
	C306.391266,609.003296 307.018433,609.022034 307.645599,609.040710 
	C308.461273,596.557922 307.808563,584.010376 308.017059,570.500610 
M825.732117,503.214233 
	C824.566895,504.118622 823.176697,504.842224 822.277832,505.960663 
	C819.352905,509.599945 820.426208,515.128479 824.394653,517.690430 
	C828.473816,520.323792 834.019714,518.736816 836.261108,514.294800 
	C838.285767,510.282257 836.523254,505.129425 832.258423,503.549133 
	C830.489807,502.893829 828.381287,503.155792 825.732117,503.214233 
z"/>
<path fill="#F2ECED" opacity="1.000000" stroke="none" 
	d="
M217.173004,592.346313 
	C216.690140,593.257141 216.467438,593.926270 216.038803,594.414490 
	C214.682068,595.959961 213.248337,597.437683 211.844391,598.941589 
	C210.410660,597.528625 208.968460,596.124146 207.551880,594.694214 
	C207.325455,594.465576 207.184998,594.135742 207.053268,593.831726 
	C204.218246,587.289246 199.886429,583.566162 192.458694,581.372742 
	C174.749100,576.143188 162.802673,563.889648 159.048706,545.608398 
	C155.508759,528.369385 163.284363,514.598145 176.447617,504.175781 
	C187.321518,495.566010 200.329056,491.268799 214.231674,492.219543 
	C228.864639,493.220306 242.207352,498.315674 252.637161,509.231842 
	C271.483124,528.956665 267.884003,559.268433 244.735229,574.613953 
	C240.208801,577.614563 235.180695,580.580627 229.987091,581.669434 
	C223.510605,583.027222 219.585587,586.155701 217.173004,592.346313 
M230.889114,545.186646 
	C228.168289,544.392944 225.447464,543.599243 222.749176,542.812134 
	C222.749176,540.093994 222.749176,537.394714 222.749176,535.964478 
	C226.147293,534.257874 230.832932,533.061279 230.889786,531.674927 
	C231.129990,525.815552 225.041519,529.726013 222.305695,527.064026 
	C222.305695,524.697998 222.624802,521.993774 222.182190,519.420532 
	C221.929672,517.952393 220.435043,516.697815 219.499695,515.347107 
	C218.403168,516.710388 216.650375,517.946045 216.354965,519.465149 
	C215.836304,522.132019 216.210114,524.972473 216.210114,527.772583 
	C212.830460,527.772583 210.130249,527.772583 207.010757,527.772583 
	C207.010757,524.562256 207.358063,521.697205 206.864716,518.985046 
	C206.616821,517.622437 204.840363,516.537781 203.755188,515.327454 
	C202.833511,516.534668 201.298706,517.656250 201.115494,518.966675 
	C200.711853,521.853943 200.990143,524.836426 200.990143,527.780090 
	C200.563400,527.449158 200.136658,527.118225 199.709915,526.787354 
	C197.170486,528.308899 194.631058,529.830505 192.091644,531.352112 
	C194.706055,532.785522 197.320480,534.218994 200.649277,536.044128 
	C200.649277,537.613403 200.649277,540.350098 200.649277,542.023682 
	C197.376968,543.766724 194.735291,545.173889 192.093613,546.580994 
	C194.774017,548.138916 197.454422,549.696777 200.973373,551.742065 
	C200.973373,553.374207 200.628799,556.237488 201.117447,558.950745 
	C201.365051,560.325562 203.116806,561.429443 204.188553,562.655823 
	C205.130386,561.469849 206.701035,560.373779 206.885880,559.079651 
	C207.296875,556.202332 207.014069,553.225891 207.014069,550.193054 
	C210.442780,550.193054 213.149506,550.193054 216.194672,550.193054 
	C216.194672,553.047485 215.790329,555.614319 216.329788,557.964478 
	C216.721756,559.672119 218.361801,561.093262 219.445343,562.642151 
	C220.400238,561.144043 221.887589,559.744385 222.186981,558.125061 
	C222.652496,555.607361 222.310043,552.940308 222.310043,550.455139 
	C230.327332,549.111267 230.327332,549.111267 230.889114,545.186646 
z"/>
<path fill="#EFE9EB" opacity="1.000000" stroke="none" 
	d="
M374.811401,516.429382 
	C375.250946,515.291748 375.561157,514.519165 375.857605,513.741333 
	C379.906464,503.117859 380.356262,502.790070 391.652771,504.213837 
	C392.820679,504.361023 394.418549,505.490936 394.836212,506.551178 
	C404.103760,530.075806 413.233154,553.654907 422.698303,578.020386 
	C418.490601,578.020386 414.765289,578.211914 411.079498,577.914368 
	C409.822815,577.812927 408.562897,576.598022 407.504120,575.665222 
	C406.940643,575.168823 406.799927,574.189758 406.475128,573.425720 
	C404.608643,569.035522 403.868744,563.040161 400.554352,560.716614 
	C397.405518,558.509216 391.564148,560.075012 386.907501,560.104919 
	C382.092377,560.135864 376.233917,558.686584 372.770599,560.907776 
	C369.592651,562.945923 368.830444,568.953796 367.317749,573.321350 
	C366.097107,576.845642 364.021790,578.435791 360.248169,578.124023 
	C357.451630,577.893005 354.620636,578.078674 350.987122,578.078674 
	C359.026550,557.279175 366.851105,537.035583 374.811401,516.429382 
M387.607697,521.106506 
	C387.137421,520.955505 386.261169,520.655334 386.254089,520.674561 
	C382.725281,530.276733 379.255280,539.900574 375.689484,549.787476 
	C383.391266,549.787476 390.435181,549.787476 397.967316,549.787476 
	C394.495300,540.179565 391.175964,530.994141 387.607697,521.106506 
z"/>
<path fill="#EFE9EB" opacity="1.000000" stroke="none" 
	d="
M669.227234,545.018066 
	C674.119263,532.404846 678.986755,520.193604 683.555969,507.871674 
	C684.659485,504.895538 686.047363,503.828522 689.260986,503.864380 
	C699.649414,503.980194 699.636841,503.843719 703.445435,513.664124 
	C711.032227,533.226624 718.638855,552.781494 726.228149,572.343018 
	C726.822266,573.874573 727.344788,575.433899 728.205200,577.827820 
	C723.993103,577.827820 720.261841,578.030029 716.574951,577.714355 
	C715.342041,577.608826 713.963135,576.382385 713.121887,575.301697 
	C712.236389,574.164185 711.875000,572.602600 711.352417,571.201050 
	C707.140869,559.905701 707.145813,559.903748 694.884338,559.912476 
	C690.387146,559.915649 685.882507,560.076355 681.395447,559.864685 
	C678.639771,559.734741 676.944275,560.473022 676.376404,563.323120 
	C676.151489,564.451904 675.611816,565.520874 675.190125,566.607178 
	C670.437866,578.850281 673.816650,578.450134 656.694885,577.559753 
	C660.870239,566.722229 664.981689,556.050720 669.227234,545.018066 
M695.445618,527.077454 
	C694.525696,524.598755 693.605774,522.120056 692.347290,518.729187 
	C688.449890,529.654663 684.926819,539.530762 681.317200,549.649597 
	C689.109253,549.649597 696.009399,549.649597 703.587769,549.649597 
	C700.870422,542.062378 698.313904,534.924316 695.445618,527.077454 
z"/>
<path fill="#EFE9EB" opacity="1.000000" stroke="none" 
	d="
M537.078491,566.095398 
	C542.810913,569.965698 548.581970,569.694458 553.936096,566.739380 
	C561.076172,562.798523 561.666260,563.982605 565.696228,570.073120 
	C558.664734,579.459045 541.783447,582.168823 530.837158,575.668579 
	C521.868530,570.342773 517.115906,558.749023 518.995850,546.421326 
	C520.633972,535.678833 526.535706,528.489563 537.165771,525.625671 
	C553.482788,521.229736 567.660156,532.903687 566.650513,549.686218 
	C566.464294,552.781494 565.405212,554.105713 562.127991,554.054688 
	C552.161194,553.899597 542.190491,553.998535 530.337341,553.998535 
	C532.858398,558.639099 534.818542,562.247314 537.078491,566.095398 
M532.255798,544.094177 
	C532.878845,544.730164 533.491272,545.906372 534.126648,545.918945 
	C540.895142,546.052795 547.667297,546.002075 554.438232,546.002075 
	C554.326904,538.162231 550.016785,533.544312 543.420471,534.058472 
	C537.634827,534.509399 534.040649,537.763062 532.255798,544.094177 
z"/>
<path fill="#EDE7E9" opacity="1.000000" stroke="none" 
	d="
M881.352295,569.391602 
	C874.900574,581.966614 852.051819,580.869812 844.624207,572.306030 
	C847.244019,564.819702 848.622742,564.493713 855.690857,567.451294 
	C858.846436,568.771729 862.749329,569.144104 866.148743,568.697205 
	C867.903076,568.466614 870.255615,565.647522 870.550415,563.724121 
	C870.784058,562.199158 868.660217,559.605591 866.937195,558.644775 
	C863.931335,556.968445 860.408936,556.235779 857.137634,555.014771 
	C848.491394,551.787537 845.292175,547.464661 845.658203,539.625427 
	C845.986328,532.599792 850.794312,526.935181 858.800964,525.360535 
	C867.207275,523.707336 875.360474,524.452454 882.115112,530.593628 
	C879.771851,537.636902 878.855591,537.892395 872.186096,535.542175 
	C869.323975,534.533569 865.988281,534.021423 863.032471,534.441833 
	C861.244263,534.696045 858.708740,537.015625 858.463989,538.692505 
	C858.231262,540.287964 860.141541,542.957397 861.816650,543.905884 
	C864.953918,545.682190 868.618774,546.512390 872.034851,547.813354 
	C882.665283,551.861877 885.527161,558.305542 881.352295,569.391602 
z"/>
<path fill="#EDE7E9" opacity="1.000000" stroke="none" 
	d="
M785.861450,578.250732 
	C781.591064,576.467102 777.729370,574.800781 773.867126,573.134216 
	C777.774719,564.475647 778.275085,564.551331 785.729919,567.625000 
	C788.878357,568.923157 792.778625,569.134460 796.200562,568.717896 
	C797.874756,568.514038 800.265137,565.848022 800.442993,564.103821 
	C800.612610,562.440430 798.723755,559.821289 797.037170,558.875854 
	C793.892151,557.112976 790.219421,556.307129 786.798462,555.017944 
	C778.586182,551.923401 774.918274,547.102661 775.314514,540.031799 
	C775.723633,532.731323 780.619812,526.936829 788.755249,525.380432 
	C797.162048,523.772034 805.317139,524.537964 812.001953,530.794312 
	C809.355225,537.826660 808.737915,537.813538 801.843994,535.586914 
	C798.573059,534.530457 794.593506,534.210144 791.303772,535.032104 
	C787.041809,536.096985 786.636169,541.131287 790.485291,543.377380 
	C793.453186,545.109253 796.902588,546.042419 800.180054,547.212646 
	C810.424988,550.870422 814.187195,555.818054 812.915894,564.088196 
	C811.626831,572.473694 804.690735,578.307678 795.223389,578.735474 
	C792.250549,578.869812 789.255188,578.504517 785.861450,578.250732 
z"/>
<path fill="#EDE7E9" opacity="1.000000" stroke="none" 
	d="
M759.186646,525.873779 
	C762.457581,527.459290 765.344849,528.955872 768.170349,530.420410 
	C765.004822,538.013367 764.666321,537.907349 757.750488,535.600037 
	C754.629272,534.558716 750.975830,534.518738 747.668457,534.909546 
	C746.265991,535.075317 744.276917,537.427612 744.118896,538.948730 
	C743.963013,540.448975 745.403320,542.816345 746.818298,543.630859 
	C749.652161,545.262207 752.930542,546.138794 756.053894,547.246399 
	C766.322937,550.888000 770.084412,555.807068 768.842468,564.052124 
	C767.547424,572.649658 760.473022,578.383484 750.760437,578.843140 
	C743.052979,579.207825 735.982666,577.754150 730.073853,572.514282 
	C733.717896,564.501343 734.198181,564.518616 741.607422,567.702515 
	C744.485413,568.939148 748.117676,569.631897 751.092102,569.026978 
	C753.241577,568.590027 755.734985,565.860413 756.397156,563.650574 
	C756.768555,562.411011 754.056580,559.568176 752.145874,558.483948 
	C749.305969,556.872559 745.921631,556.242065 742.810608,555.082581 
	C734.427490,551.958740 730.628540,546.876892 731.218933,539.701294 
	C731.824890,532.336792 737.270203,526.349304 745.477844,525.242310 
	C749.816223,524.657104 754.354797,525.555969 759.186646,525.873779 
z"/>
<path fill="#EDE7E9" opacity="1.000000" stroke="none" 
	d="
M908.160889,537.896729 
	C908.166321,546.404602 908.107544,554.401489 908.208435,562.396362 
	C908.276611,567.800415 910.280945,569.226318 915.402405,567.500427 
	C921.223572,565.538757 920.298340,571.502258 922.886230,573.313171 
	C918.863647,578.234680 910.141418,580.229248 903.588257,577.899658 
	C898.165405,575.971863 895.168701,571.468628 895.086121,564.539917 
	C894.970947,554.885315 895.057068,545.228271 895.057068,535.065186 
	C890.016724,535.191284 885.422424,534.629639 887.557068,527.497437 
	C887.524475,527.524841 887.767395,527.140503 888.018433,527.135132 
	C894.286560,527.001526 896.545776,523.612488 897.258118,517.577026 
	C898.247742,509.191895 898.697205,509.244934 907.962524,510.114471 
	C907.962524,514.981140 907.962524,519.909180 907.962524,525.576477 
	C912.785767,525.576477 917.148987,525.576477 921.754517,525.576477 
	C921.754517,528.907715 921.754517,531.497437 921.754517,534.780212 
	C918.163574,534.780212 914.710144,534.569824 911.309143,534.899902 
	C910.191101,535.008362 909.208984,536.516663 908.160889,537.896729 
z"/>
<path fill="#EFE9EB" opacity="1.000000" stroke="none" 
	d="
M641.675781,560.411194 
	C637.418274,558.513550 633.458008,556.835632 629.442993,555.300964 
	C620.832458,552.009705 617.276489,547.444824 617.682129,540.033447 
	C618.079468,532.773621 622.966064,527.060974 631.208923,525.475525 
	C639.640076,523.853882 647.773499,524.759521 654.442322,531.035034 
	C651.241455,538.189209 651.004395,538.107727 644.173157,535.690979 
	C641.327026,534.684082 637.983582,534.214294 635.044312,534.664001 
	C633.266235,534.935974 630.760376,537.303650 630.546692,538.980225 
	C630.341614,540.589111 632.293396,543.142212 633.975647,544.168091 
	C636.613708,545.776917 639.822510,546.449280 642.788818,547.520447 
	C652.236145,550.931824 655.866821,555.278687 655.384155,562.598083 
	C654.839966,570.850586 649.556030,576.563354 640.638550,578.540344 
	C632.025024,580.450012 622.240112,577.922852 616.522095,572.311646 
	C620.164551,564.542542 620.418762,564.688843 628.415039,567.954224 
	C631.420166,569.181396 635.222351,569.540527 638.417358,568.958008 
	C642.896423,568.141357 643.763123,565.280090 641.675781,560.411194 
z"/>
<path fill="#EFE9EB" opacity="1.000000" stroke="none" 
	d="
M610.293518,557.069275 
	C612.288513,569.987671 605.141113,578.572571 592.536072,578.945251 
	C583.331421,579.217468 577.833923,577.512085 572.244019,572.650635 
	C575.045959,564.909607 576.111389,564.701965 583.644226,567.863892 
	C586.651733,569.126343 590.392761,569.515137 593.617798,569.047058 
	C595.458313,568.779846 598.062256,566.100098 598.245361,564.295776 
	C598.420166,562.574097 596.288940,559.915222 594.477051,558.854553 
	C591.526428,557.127136 587.994141,556.408813 584.736145,555.187683 
	C576.401733,552.063965 572.915039,547.543823 573.192017,540.317627 
	C573.469849,533.071167 578.251709,527.389038 586.498047,525.620911 
	C595.104492,523.775574 603.297119,524.797791 610.095337,531.136597 
	C606.615662,538.321106 606.659790,538.083130 599.646729,535.677612 
	C596.675659,534.658508 593.177490,534.452942 590.059753,534.887756 
	C588.482849,535.107788 586.261902,537.470947 586.086731,539.058594 
	C585.915161,540.613708 587.586304,543.124817 589.129150,543.961121 
	C592.441589,545.756775 596.198364,546.727783 599.761719,548.067017 
	C604.215088,549.740845 608.281555,551.897583 610.293518,557.069275 
z"/>
<path fill="#EFE9EB" opacity="1.000000" stroke="none" 
	d="
M423.498169,554.737854 
	C423.084076,538.672119 429.487701,528.449524 442.082001,525.691772 
	C451.290100,523.675537 459.934235,525.023621 466.719238,532.432007 
	C462.960449,539.766296 462.825470,539.815186 455.602722,536.580688 
	C447.458771,532.933594 439.643280,536.238708 437.832825,544.929016 
	C436.851196,549.640930 436.920959,554.946411 438.014069,559.634888 
	C440.028931,568.276794 448.220673,571.323608 455.998779,567.089783 
	C462.676788,563.454773 462.676788,563.454773 467.145233,569.636108 
	C463.296295,576.784973 452.393433,580.795959 442.222687,578.804688 
	C431.801086,576.764343 425.104401,568.314026 423.498169,554.737854 
z"/>
<path fill="#EFE9EB" opacity="1.000000" stroke="none" 
	d="
M487.179260,540.511963 
	C483.852081,546.979004 483.806183,553.423584 485.659393,559.799622 
	C488.126984,568.289490 496.206940,571.322876 503.907990,566.986877 
	C510.541229,563.252075 510.541229,563.252075 514.888916,569.793701 
	C510.490723,579.219543 491.117310,582.447937 481.145416,574.870178 
	C469.595367,566.093201 467.536987,544.190491 477.408081,532.875977 
	C486.584717,522.357483 504.479095,522.134766 514.340393,532.416321 
	C511.021179,539.570190 510.413300,539.804626 503.453461,536.615051 
	C497.203552,533.750854 492.353271,534.823486 487.179260,540.511963 
z"/>
<path fill="#EDE7E9" opacity="1.000000" stroke="none" 
	d="
M835.307739,526.941284 
	C835.378418,543.969238 835.378418,560.572693 835.378418,577.472778 
	C831.027527,577.472778 827.109741,577.472778 822.674561,577.472778 
	C822.674561,560.516052 822.674561,543.520691 822.674561,525.633911 
	C826.866699,525.928528 831.051880,526.222595 835.307739,526.941284 
z"/>
<path fill="#A1A4B5" opacity="1.000000" stroke="none" 
	d="
M308.016571,571.000671 
	C307.808563,584.010376 308.461273,596.557922 307.645599,609.040710 
	C307.018433,609.022034 306.391266,609.003296 305.764099,608.984619 
	C305.764099,563.707275 305.764099,518.429932 305.764099,473.155334 
	C306.487610,473.155334 306.655090,473.133606 306.813873,473.161499 
	C306.970398,473.188934 307.159271,473.226318 307.261200,473.330536 
	C307.484436,473.558716 307.832764,473.831543 307.833374,474.086914 
	C307.912140,506.224762 307.963928,538.362671 308.016571,571.000671 
z"/>
<path fill="#EDE7E9" opacity="1.000000" stroke="none" 
	d="
M826.079712,503.107422 
	C828.381287,503.155792 830.489807,502.893829 832.258423,503.549133 
	C836.523254,505.129425 838.285767,510.282257 836.261108,514.294800 
	C834.019714,518.736816 828.473816,520.323792 824.394653,517.690430 
	C820.426208,515.128479 819.352905,509.599945 822.277832,505.960663 
	C823.176697,504.842224 824.566895,504.118622 826.079712,503.107422 
z"/>
<path fill="#22345F" opacity="1.000000" stroke="none" 
	d="
M231.022842,545.529297 
	C230.327332,549.111267 230.327332,549.111267 222.310043,550.455139 
	C222.310043,552.940308 222.652496,555.607361 222.186981,558.125061 
	C221.887589,559.744385 220.400238,561.144043 219.445358,562.642151 
	C218.361801,561.093262 216.721756,559.672119 216.329788,557.964478 
	C215.790329,555.614319 216.194672,553.047485 216.194672,550.193054 
	C213.149506,550.193054 210.442780,550.193054 207.014069,550.193054 
	C207.014069,553.225891 207.296875,556.202332 206.885880,559.079651 
	C206.701035,560.373779 205.130386,561.469849 204.188538,562.655823 
	C203.116806,561.429443 201.365051,560.325562 201.117447,558.950745 
	C200.628799,556.237488 200.973373,553.374207 200.973373,551.742065 
	C197.454422,549.696777 194.774017,548.138916 192.093628,546.580994 
	C194.735291,545.173889 197.376968,543.766724 200.649277,542.023682 
	C200.649277,540.350098 200.649277,537.613403 200.649277,536.044128 
	C197.320480,534.218994 194.706055,532.785522 192.091644,531.352112 
	C194.631058,529.830505 197.170486,528.308899 199.709915,526.787354 
	C200.136658,527.118225 200.563400,527.449158 200.990143,527.780090 
	C200.990143,524.836426 200.711853,521.853943 201.115494,518.966675 
	C201.298706,517.656250 202.833511,516.534668 203.755188,515.327454 
	C204.840363,516.537781 206.616821,517.622437 206.864716,518.985046 
	C207.358063,521.697205 207.010757,524.562256 207.010757,527.772583 
	C210.130249,527.772583 212.830460,527.772583 216.210114,527.772583 
	C216.210114,524.972473 215.836304,522.132019 216.354965,519.465149 
	C216.650375,517.946045 218.403168,516.710388 219.499695,515.347107 
	C220.435043,516.697815 221.929672,517.952393 222.182190,519.420532 
	C222.624802,521.993774 222.305695,524.697998 222.305695,527.064026 
	C225.041519,529.726013 231.129990,525.815552 230.889786,531.674927 
	C230.832932,533.061279 226.147293,534.257874 222.749176,535.964478 
	C222.749176,537.394714 222.749176,540.093994 222.749176,542.812134 
	C225.447464,543.599243 228.168289,544.392944 231.022842,545.529297 
M216.284912,538.543884 
	C215.822067,533.749329 214.597870,533.274353 207.408737,535.102234 
	C207.408737,537.808594 207.408737,540.514954 207.408737,543.149841 
	C215.712296,544.305298 215.823730,544.255981 216.284912,538.543884 
z"/>
<path fill="#1B2E59" opacity="1.000000" stroke="none" 
	d="
M387.732147,521.457581 
	C391.175964,530.994141 394.495300,540.179565 397.967316,549.787476 
	C390.435181,549.787476 383.391266,549.787476 375.689484,549.787476 
	C379.255280,539.900574 382.725281,530.276733 386.254089,520.674561 
	C386.261169,520.655334 387.137421,520.955505 387.732147,521.457581 
z"/>
<path fill="#1B2E59" opacity="1.000000" stroke="none" 
	d="
M695.601562,527.431885 
	C698.313904,534.924316 700.870422,542.062378 703.587769,549.649597 
	C696.009399,549.649597 689.109253,549.649597 681.317200,549.649597 
	C684.926819,539.530762 688.449890,529.654663 692.347290,518.729187 
	C693.605774,522.120056 694.525696,524.598755 695.601562,527.431885 
z"/>
<path fill="#1B2E59" opacity="1.000000" stroke="none" 
	d="
M532.363892,543.702087 
	C534.040649,537.763062 537.634827,534.509399 543.420471,534.058472 
	C550.016785,533.544312 554.326904,538.162231 554.438232,546.002075 
	C547.667297,546.002075 540.895142,546.052795 534.126648,545.918945 
	C533.491272,545.906372 532.878845,544.730164 532.363892,543.702087 
z"/>
<path fill="#EDE7E9" opacity="1.000000" stroke="none" 
	d="
M216.284943,538.997803 
	C215.823730,544.255981 215.712296,544.305298 207.408737,543.149841 
	C207.408737,540.514954 207.408737,537.808594 207.402954,535.099060 
	C214.597870,533.274353 215.822067,533.749329 216.284943,538.997803 
z"/>
</svg>